<svg xmlns="http://www.w3.org/2000/svg" version="1.1" xmlns:xlink="http://www.w3.org/1999/xlink" xmlns:svgjs="http://svgjs.com/svgjs" width="2000" height="1000" preserveAspectRatio="none" viewBox="0 0 2000 1000"><g mask="url(&quot;#SvgjsMask1254&quot;)" fill="none"><rect width="2000" height="1000" x="0" y="0" fill="url(#SvgjsLinearGradient1255)"></rect><path d="M 0,488 C 80,434.2 240,252.6 400,219 C 560,185.4 640,359.6 800,320 C 960,280.4 1040,4.4 1200,21 C 1360,37.6 1440,387 1600,403 C 1760,419 1920,161.4 2000,101L2000 1000L0 1000z" fill="#184a7e"></path><path d="M 0,866 C 57.2,814.6 171.6,603 286,609 C 400.4,615 457.6,901.2 572,896 C 686.4,890.8 743.6,576.2 858,583 C 972.4,589.8 1029.6,927.8 1144,930 C 1258.4,932.2 1315.6,603.8 1430,594 C 1544.4,584.2 1602,892.4 1716,881 C 1830,869.6 1943.2,605.8 2000,537L2000 1000L0 1000z" fill="#2264ab"></path></g><defs><mask id="SvgjsMask1254"><rect width="2000" height="1000" fill="#ffffff"></rect></mask><linearGradient x1="12.5%" y1="-25%" x2="87.5%" y2="125%" gradientUnits="userSpaceOnUse" id="SvgjsLinearGradient1255"><stop stop-color="#0e2a47" offset="0"></stop><stop stop-color="rgba(91, 119, 155, 1)" offset="1"></stop></linearGradient></defs></svg>